<svg xmlns="http://www.w3.org/2000/svg" xmlns:xlink="http://www.w3.org/1999/xlink" width="209" height="209" viewBox="0 0 209 209">
  <defs>
    <filter id="Ellipse_8" x="0" y="0" width="209" height="209" filterUnits="userSpaceOnUse">
      <feOffset dy="3" input="SourceAlpha"/>
      <feGaussianBlur stdDeviation="3" result="blur"/>
      <feFlood flood-opacity="0.161"/>
      <feComposite operator="in" in2="blur"/>
      <feComposite in="SourceGraphic"/>
    </filter>
  </defs>
  <g id="icon1" transform="translate(-577 -1966)">
    <g transform="matrix(1, 0, 0, 1, 577, 1966)" filter="url(#Ellipse_8)">
      <circle id="Ellipse_8-2" data-name="Ellipse 8" cx="95.5" cy="95.5" r="95.5" transform="translate(9 6)" fill="#191919"/>
    </g>
    <g id="Group_538" data-name="Group 538" transform="translate(625.692 2008.24)">
      <text id="Family_Law" data-name="Family Law" transform="translate(48 107.976)" fill="#fff" font-size="18" font-family="OpenSans-Semibold, Open Sans" font-weight="600"><tspan x="-48.248" y="0">Family Law</tspan></text>
      <g id="Group_510" data-name="Group 510" transform="translate(13.393 0)">
        <rect id="Rectangle_603" data-name="Rectangle 603" width="28.692" height="20.466" transform="translate(26.607 6.46) rotate(31.476)" stroke-width="2" stroke="#fff" stroke-linecap="round" stroke-linejoin="round" fill="none"/>
        <rect id="Rectangle_604" data-name="Rectangle 604" width="9.416" height="24.062" transform="translate(19.5 0) rotate(31.475)" stroke-width="2" stroke="#fff" stroke-linecap="round" stroke-linejoin="round" fill="none"/>
        <rect id="Rectangle_605" data-name="Rectangle 605" width="9.416" height="24.062" transform="translate(52.016 19.907) rotate(31.475)" stroke-width="2" stroke="#fff" stroke-linecap="round" stroke-linejoin="round" fill="none"/>
        <rect id="Rectangle_606" data-name="Rectangle 606" width="10.185" height="45.436" transform="translate(23.724 28.893) rotate(31.476)" stroke-width="2" stroke="#fff" stroke-linecap="round" stroke-linejoin="round" fill="none"/>
        <path id="Rectangle_607" data-name="Rectangle 607" d="M10.14,0h7.376a10.14,10.14,0,0,1,10.14,10.14v0a0,0,0,0,1,0,0H0a0,0,0,0,1,0,0v0A10.14,10.14,0,0,1,10.14,0Z" transform="translate(56.871 62.821)" fill="none" stroke="#fff" stroke-linecap="round" stroke-linejoin="round" stroke-width="2"/>
      </g>
    </g>
  </g>
</svg>
