<svg xmlns="http://www.w3.org/2000/svg" xmlns:xlink="http://www.w3.org/1999/xlink" width="209" height="209" viewBox="0 0 209 209">
  <defs>
    <filter id="Ellipse_5" x="0" y="0" width="209" height="209" filterUnits="userSpaceOnUse">
      <feOffset dy="3" input="SourceAlpha"/>
      <feGaussianBlur stdDeviation="3" result="blur"/>
      <feFlood flood-opacity="0.161"/>
      <feComposite operator="in" in2="blur"/>
      <feComposite in="SourceGraphic"/>
    </filter>
  </defs>
  <g id="icon3" transform="translate(-1014 -1966)">
    <g transform="matrix(1, 0, 0, 1, 1014, 1966)" filter="url(#Ellipse_5)">
      <circle id="Ellipse_5-2" data-name="Ellipse 5" cx="95.5" cy="95.5" r="95.5" transform="translate(9 6)" fill="#191919"/>
    </g>
    <g id="Group_535" data-name="Group 535" transform="translate(1080.293 2008.302)">
      <text id="Wills" transform="translate(38.245 109.867)" fill="#fff" font-size="20" font-family="OpenSans-Semibold, Open Sans" font-weight="600"><tspan x="-22.69" y="0">Wills</tspan></text>
      <g id="Group_513" data-name="Group 513" transform="translate(0 0)">
        <g id="Group_512" data-name="Group 512">
          <g id="Group_511" data-name="Group 511">
            <path id="Path_36" data-name="Path 36" d="M2102.355,381.635h44.715c4.168,0,7.548-3.67,7.548-8.2H2109.9c0,4.528-3.379,8.2-7.548,8.2s-7.548-3.67-7.548-8.2l.31-56.146a8.2,8.2,0,1,0-16.4,0s-.693,8.411,9.9,4.379" transform="translate(-2078.711 -309.093)" fill="none" stroke="#fff" stroke-linecap="round" stroke-linejoin="round" stroke-width="2"/>
            <path id="Path_37" data-name="Path 37" d="M2108.334,309.093H2156.9a8.2,8.2,0,0,1,8.2,8.2v56.146" transform="translate(-2100.127 -309.093)" fill="none" stroke="#fff" stroke-linecap="round" stroke-linejoin="round" stroke-width="2"/>
          </g>
        </g>
        <line id="Line_14" data-name="Line 14" x2="23.644" transform="translate(29.287 18.935)" fill="none" stroke="#fff" stroke-linecap="round" stroke-linejoin="round" stroke-width="2"/>
        <line id="Line_15" data-name="Line 15" x2="23.644" transform="translate(29.287 32.142)" fill="none" stroke="#fff" stroke-linecap="round" stroke-linejoin="round" stroke-width="2"/>
        <line id="Line_16" data-name="Line 16" x2="23.644" transform="translate(29.287 45.35)" fill="none" stroke="#fff" stroke-linecap="round" stroke-linejoin="round" stroke-width="2"/>
      </g>
    </g>
  </g>
</svg>
