<svg xmlns="http://www.w3.org/2000/svg" xmlns:xlink="http://www.w3.org/1999/xlink" width="209" height="209" viewBox="0 0 209 209">
  <defs>
    <filter id="Ellipse_7" x="0" y="0" width="209" height="209" filterUnits="userSpaceOnUse">
      <feOffset dy="3" input="SourceAlpha"/>
      <feGaussianBlur stdDeviation="3" result="blur"/>
      <feFlood flood-opacity="0.161"/>
      <feComposite operator="in" in2="blur"/>
      <feComposite in="SourceGraphic"/>
    </filter>
  </defs>
  <g id="icon2" transform="translate(-795 -1966)">
    <g transform="matrix(1, 0, 0, 1, 795, 1966)" filter="url(#Ellipse_7)">
      <circle id="Ellipse_7-2" data-name="Ellipse 7" cx="95.5" cy="95.5" r="95.5" transform="translate(9 6)" fill="#191919"/>
    </g>
    <g id="Group_537" data-name="Group 537" transform="translate(855.086 2008.302)">
      <text id="Probates" transform="translate(41 108.867)" fill="#fff" font-size="19" font-family="OpenSans-Semibold, Open Sans" font-weight="600"><tspan x="-40.816" y="0">Probates</tspan></text>
      <g id="Group_517" data-name="Group 517" transform="translate(12.37 0)">
        <g id="Group_514" data-name="Group 514" transform="translate(6.047)">
          <path id="Path_38" data-name="Path 38" d="M956.893,343.191V332.607h48.9v60.439h-48.9v-4.2" transform="translate(-945.56 -320.716)" fill="none" stroke="#fff" stroke-linejoin="round" stroke-width="2"/>
          <path id="Path_39" data-name="Path 39" d="M958.021,285.073V280H906.753v53.064" transform="translate(-906.753 -280)" fill="none" stroke="#fff" stroke-linejoin="round" stroke-width="2"/>
        </g>
        <g id="Group_516" data-name="Group 516" transform="translate(0 24.166)">
          <g id="Group_515" data-name="Group 515" transform="translate(0 0)">
            <path id="Path_40" data-name="Path 40" d="M881.062,428.9l14.636-14.62a3.579,3.579,0,0,1,.285-.232,17.533,17.533,0,1,1,5.065,5.071,3.6,3.6,0,0,1-.232.284L886.18,434.02a3.621,3.621,0,1,1-5.118-5.123Z" transform="translate(-880 -386.915)" fill="none" stroke="#fff" stroke-miterlimit="10" stroke-width="2"/>
            <line id="Line_17" data-name="Line 17" x1="5.066" y1="5.071" transform="translate(15.983 27.129)" fill="none" stroke="#fff" stroke-linecap="round" stroke-linejoin="round" stroke-width="2"/>
            <line id="Line_18" data-name="Line 18" x1="5.118" y1="5.123" transform="translate(12.998 30.059)" fill="none" stroke="#fff" stroke-linecap="round" stroke-linejoin="round" stroke-width="2"/>
          </g>
        </g>
      </g>
    </g>
  </g>
</svg>
