<svg xmlns="http://www.w3.org/2000/svg" xmlns:xlink="http://www.w3.org/1999/xlink" width="209" height="209" viewBox="0 0 209 209">
  <defs>
    <filter id="Ellipse_6" x="0" y="0" width="209" height="209" filterUnits="userSpaceOnUse">
      <feOffset dy="3" input="SourceAlpha"/>
      <feGaussianBlur stdDeviation="3" result="blur"/>
      <feFlood flood-opacity="0.161"/>
      <feComposite operator="in" in2="blur"/>
      <feComposite in="SourceGraphic"/>
    </filter>
  </defs>
  <g id="icon4" transform="translate(-1232 -1966)">
    <g transform="matrix(1, 0, 0, 1, 1232, 1966)" filter="url(#Ellipse_6)">
      <circle id="Ellipse_6-2" data-name="Ellipse 6" cx="95.5" cy="95.5" r="95.5" transform="translate(9 6)" fill="#191919"/>
    </g>
    <g id="Group_536" data-name="Group 536" transform="translate(1287.303 2007.337)">
      <text id="Mediation" transform="translate(50.697 107.663)" fill="#fff" font-size="17" font-family="OpenSans-Semibold, Open Sans" font-weight="600"><tspan x="-41.637" y="0">Mediation</tspan></text>
      <g id="Group_509" data-name="Group 509" transform="translate(8.697)">
        <g id="Group_507" data-name="Group 507" transform="translate(0 2.941)">
          <g id="Group_506" data-name="Group 506">
            <g id="Group_505" data-name="Group 505">
              <g id="Group_504" data-name="Group 504" transform="translate(5.101 14.876)">
                <g id="Group_503" data-name="Group 503">
                  <g id="Group_502" data-name="Group 502" transform="translate(9.687 7.203)">
                    <line id="Line_1" data-name="Line 1" y1="18.14" x2="13.902" stroke-width="2" stroke="#fff" stroke-linecap="round" stroke-linejoin="round" fill="none"/>
                  </g>
                  <path id="Path_21" data-name="Path 21" d="M502.116,521.548a3.556,3.556,0,0,1-4.385,5.6" transform="translate(-444.344 -479.501)" fill="none" stroke="#fff" stroke-linecap="round" stroke-linejoin="round" stroke-width="2"/>
                  <path id="Path_22" data-name="Path 22" d="M466.98,450.1l17.688,13.7a3.556,3.556,0,0,1-4.385,5.6" transform="translate(-421.623 -426.706)" fill="none" stroke="#fff" stroke-linecap="round" stroke-linejoin="round" stroke-width="2"/>
                  <path id="Path_23" data-name="Path 23" d="M322.768,370s-2.393-2.308-4.354-2.023a1.625,1.625,0,0,1-1.979-1.123,2.932,2.932,0,0,0-1.084-1.643l-5.2-4.076a2.894,2.894,0,0,0-4.062.493l-12.192,15.958a2.894,2.894,0,0,0,.493,4.063l5.2,4.076a2.892,2.892,0,0,0,3.375.137,7.257,7.257,0,0,0,1.977,2.4h0a10.6,10.6,0,0,0,2.3,5.855" transform="translate(-293.279 -360.521)" fill="none" stroke="#fff" stroke-linecap="round" stroke-linejoin="round" stroke-width="2"/>
                  <path id="Path_24" data-name="Path 24" d="M447.859,536.438a3.556,3.556,0,0,1-4.386,5.6l-3.716-3a3.556,3.556,0,0,1-4.386,5.6l-2.2-1.673" transform="translate(-396.644 -490.503)" fill="none" stroke="#fff" stroke-linecap="round" stroke-linejoin="round" stroke-width="2"/>
                  <line id="Line_2" data-name="Line 2" x1="10.186" y1="7.916" transform="translate(47.579 34.14)" fill="none" stroke="#fff" stroke-linecap="round" stroke-linejoin="round" stroke-width="2"/>
                  <line id="Line_3" data-name="Line 3" x1="8.612" y1="6.747" transform="translate(44.774 40.898)" fill="none" stroke="#fff" stroke-linecap="round" stroke-linejoin="round" stroke-width="2"/>
                </g>
              </g>
              <line id="Line_4" data-name="Line 4" x1="4.764" y1="2.686" transform="translate(0 30.139)" fill="none" stroke="#fff" stroke-linecap="round" stroke-linejoin="round" stroke-width="2"/>
              <line id="Line_5" data-name="Line 5" x1="14.768" y1="14.296" transform="translate(3.989)" fill="none" stroke="#fff" stroke-linecap="round" stroke-linejoin="round" stroke-width="2"/>
            </g>
          </g>
          <line id="Line_6" data-name="Line 6" x1="2.404" y1="2.113" transform="translate(45.811 61.295)" fill="none" stroke="#fff" stroke-linecap="round" stroke-linejoin="round" stroke-width="2"/>
        </g>
        <g id="Group_508" data-name="Group 508" transform="translate(54.869 24.728)">
          <line id="Line_7" data-name="Line 7" x1="13.902" y1="18.14" stroke-width="2" stroke="#fff" stroke-linecap="round" stroke-linejoin="round" fill="none"/>
        </g>
        <path id="Path_25" data-name="Path 25" d="M349.185,520.432a3.556,3.556,0,0,0,4.386,5.6" transform="translate(-328.499 -460.859)" fill="none" stroke="#fff" stroke-linecap="round" stroke-linejoin="round" stroke-width="2"/>
        <path id="Path_26" data-name="Path 26" d="M349.566,522.874" transform="translate(-329.768 -462.663)" fill="none" stroke="#fff" stroke-linecap="round" stroke-linejoin="round" stroke-width="2"/>
        <path id="Path_27" data-name="Path 27" d="M333.378,507.035a3.556,3.556,0,0,1-4.386-5.6" transform="translate(-313.579 -446.824)" fill="none" stroke="#fff" stroke-linecap="round" stroke-linejoin="round" stroke-width="2"/>
        <path id="Path_28" data-name="Path 28" d="M338.663,484.158l-.613.423-5.28,4.089" transform="translate(-317.358 -434.057)" fill="none" stroke="#fff" stroke-linecap="round" stroke-linejoin="round" stroke-width="2"/>
        <path id="Path_29" data-name="Path 29" d="M371.016,506.425" transform="translate(-345.617 -450.509)" fill="none" stroke="#fff" stroke-linecap="round" stroke-linejoin="round" stroke-width="2"/>
        <path id="Path_30" data-name="Path 30" d="M359.431,488.179a3.556,3.556,0,0,0-4.094-5.814" transform="translate(-334.032 -432.263)" fill="none" stroke="#fff" stroke-linecap="round" stroke-linejoin="round" stroke-width="2"/>
        <path id="Path_31" data-name="Path 31" d="M387.62,500.5a3.556,3.556,0,0,0-4.094-5.814" transform="translate(-354.86 -441.367)" fill="none" stroke="#fff" stroke-linecap="round" stroke-linejoin="round" stroke-width="2"/>
        <path id="Path_32" data-name="Path 32" d="M405.466,521.62a3.56,3.56,0,0,0-3.569-6.12" transform="translate(-368.434 -456.972)" fill="none" stroke="#fff" stroke-linecap="round" stroke-linejoin="round" stroke-width="2"/>
        <path id="Path_33" data-name="Path 33" d="M418.817,544.768a3.533,3.533,0,0,0,.823-4.928,3.619,3.619,0,0,0-4.981-.934" transform="translate(-377.863 -474.052)" fill="none" stroke="#fff" stroke-linecap="round" stroke-linejoin="round" stroke-width="2"/>
        <path id="Path_34" data-name="Path 34" d="M411.209,393.4a10.6,10.6,0,0,0,2.638-6.259h0a7.251,7.251,0,0,0,1.977-2.4,2.893,2.893,0,0,0,3.375-.137l5.2-4.076a2.893,2.893,0,0,0,.493-4.062L412.7,360.514a2.893,2.893,0,0,0-4.062-.493l-5.2,4.076a2.934,2.934,0,0,0-1.084,1.643,1.517,1.517,0,0,1-1.979,1.123l-.244-.087s-8.2,2.37-13.048,1.916a9.157,9.157,0,0,0-6.266,1.486c-2.834,1.944-7.858,7.468-7.858,7.468s1.883,7.1,11.138-.291c3.624-2.9,13.413,5.733,13.413,5.733" transform="translate(-347.052 -341.879)" fill="none" stroke="#fff" stroke-linecap="round" stroke-linejoin="round" stroke-width="2"/>
        <path id="Path_35" data-name="Path 35" d="M374.295,535.322a3.556,3.556,0,0,0,4.385,5.6l3.717-3a3.556,3.556,0,0,0,4.385,5.6l1.223-.939" transform="translate(-347.052 -471.861)" fill="none" stroke="#fff" stroke-linecap="round" stroke-linejoin="round" stroke-width="2"/>
        <line id="Line_8" data-name="Line 8" y1="3.667" x2="4.718" transform="translate(20.693 55.916)" fill="none" stroke="#fff" stroke-linecap="round" stroke-linejoin="round" stroke-width="2"/>
        <line id="Line_9" data-name="Line 9" y1="6.038" x2="7.706" transform="translate(25.071 59.133)" fill="none" stroke="#fff" stroke-linecap="round" stroke-linejoin="round" stroke-width="2"/>
        <line id="Line_10" data-name="Line 10" y1="2.686" x2="4.764" transform="translate(78.795 32.789)" fill="none" stroke="#fff" stroke-linecap="round" stroke-linejoin="round" stroke-width="2"/>
        <line id="Line_11" data-name="Line 11" y1="16.946" x2="18.757" transform="translate(64.802)" fill="none" stroke="#fff" stroke-linecap="round" stroke-linejoin="round" stroke-width="2"/>
        <line id="Line_12" data-name="Line 12" y1="1.409" x2="1.701" transform="translate(35.344 64.648)" fill="none" stroke="#fff" stroke-linecap="round" stroke-linejoin="round" stroke-width="2"/>
        <line id="Line_13" data-name="Line 13" y1="2.597" x2="3.267" transform="translate(25.399 53.319)" fill="none" stroke="#fff" stroke-linecap="round" stroke-linejoin="round" stroke-width="2"/>
      </g>
    </g>
  </g>
</svg>
